<svg width="54" height="54" viewBox="0 0 54 54" fill="none" xmlns="http://www.w3.org/2000/svg">
<path d="M38.5714 0H15.4286C6.90761 0 0 6.90761 0 15.4286V38.5714C0 47.0924 6.90761 54 15.4286 54H38.5714C47.0924 54 54 47.0924 54 38.5714V15.4286C54 6.90761 47.0924 0 38.5714 0Z" fill="#0289F7"/>
<path d="M31.4897 14.5C32.639 14.5 33.7415 14.9569 34.5542 15.7695L38.231 19.4463C39.0435 20.2589 39.5005 21.3616 39.5005 22.5107V36.167C39.5 38.5598 37.5594 40.5 35.1665 40.5H13.5005V37.0332H36.0337C36.0005 37 36.0332 36.6452 36.0337 36.167V22.5107C36.0337 22.281 35.9422 22.06 35.7798 21.8975L32.103 18.2207C31.9405 18.0582 31.7196 17.9668 31.4897 17.9668H29.1001V14.5H31.4897ZM23.5571 14.5H27.3667V17.9668H23.5571V22.2998H23.8999C25.4121 22.2998 26.8745 22.8788 27.9624 23.9277C29.0525 24.9789 29.6772 26.4188 29.6772 27.9336C29.6771 29.4482 29.0524 30.8874 27.9624 31.9385C26.8745 32.9873 25.4121 33.5664 23.8999 33.5664H23.5571V35.9805H20.0903V33.5664H15.7817V30.0996H20.0903V25.7666H19.5659C18.0537 25.7664 16.5912 25.1876 15.5034 24.1387C14.4135 23.0877 13.7888 21.6483 13.7886 20.1338C13.7886 18.6191 14.4135 17.1791 15.5034 16.1279C16.5912 15.079 18.0538 14.5002 19.5659 14.5H20.0903V12.7666H23.5571V14.5ZM23.5571 30.0996H23.8999C24.5325 30.0996 25.1273 29.8567 25.5562 29.4434C25.9828 29.0319 26.2103 28.4873 26.2104 27.9336C26.2104 27.3798 25.9829 26.8354 25.5562 26.4238C25.1272 26.0102 24.5327 25.7666 23.8999 25.7666H23.5571V30.0996ZM19.5659 17.9668C18.9334 17.967 18.3385 18.2097 17.9097 18.623C17.4831 19.0346 17.2554 19.5801 17.2554 20.1338C17.2556 20.6874 17.483 21.2322 17.9097 21.6436C18.3385 22.057 18.9334 22.2996 19.5659 22.2998H20.0903V17.9668H19.5659Z" fill="white"/>
</svg>
