<svg width="54" height="54" viewBox="0 0 54 54" fill="none" xmlns="http://www.w3.org/2000/svg">
<path d="M38.5714 0H15.4286C6.90761 0 0 6.90761 0 15.4286V38.5714C0 47.0924 6.90761 54 15.4286 54H38.5714C47.0924 54 54 47.0924 54 38.5714V15.4286C54 6.90761 47.0924 0 38.5714 0Z" fill="#0289F7" fill-opacity="0.1"/>
<path d="M26.1417 11.7727C26.7723 11.4588 27.5346 11.512 28.1211 11.9309L41.6211 21.5737C42.3033 22.0611 42.5926 22.9337 42.3368 23.7321C42.0806 24.5299 41.3385 25.0712 40.5005 25.0712H38.5719V36.6426L41.4645 36.6427C42.5297 36.6427 42.429 37.506 42.429 38.5712C42.429 39.6362 42.5296 40.4999 41.4645 40.4999L12.536 40.4997C11.4709 40.4997 11.572 39.6362 11.5719 38.5712C11.5719 37.506 11.4709 36.6426 12.536 36.6426H15.429V25.0712H13.5005C12.6625 25.0712 11.9204 24.5299 11.6642 23.7321C11.4083 22.9337 11.6977 22.0611 12.3799 21.5737L25.8799 11.9309L26.1417 11.7727ZM19.2862 36.6426H25.0719V25.0712H19.2862V36.6426ZM28.929 36.6426H34.7148V25.0712H28.929V36.6426ZM19.5178 21.214H34.4831L27.0005 15.869L19.5178 21.214Z" fill="#0981E3"/>
</svg>
