<svg width="54" height="54" viewBox="0 0 54 54" fill="none" xmlns="http://www.w3.org/2000/svg">
<path d="M38.5714 0H15.4286C6.90761 0 0 6.90761 0 15.4286V38.5714C0 47.0924 6.90761 54 15.4286 54H38.5714C47.0924 54 54 47.0924 54 38.5714V15.4286C54 6.90761 47.0924 0 38.5714 0Z" fill="#0289F7" fill-opacity="0.1"/>
<path d="M35.6783 11.5713C38.3411 11.5713 40.4997 13.7299 40.4997 16.3927V42.4284H17.3569V23.1427H9.64258V16.3927C9.64258 13.7299 11.8012 11.5713 14.464 11.5713H35.6783ZM21.118 15.4284C21.1812 15.74 21.214 16.0625 21.214 16.3927V38.5713H36.6426V15.4284C35.6783 15.4284 36.2109 15.4284 35.6783 15.4284H21.118ZM34.714 36.6427H28.9283V32.7856H34.714V36.6427ZM34.714 30.857H25.0711V26.9999H34.714V30.857ZM14.464 15.4284C13.9314 15.4284 13.4997 15.8602 13.4997 16.3927V19.2856H17.3569V16.3927C17.3569 15.8602 16.9251 15.4284 16.3926 15.4284H14.464Z" fill="#0981E3"/>
</svg>
