<svg width="28" height="28" viewBox="0 0 28 28" fill="none" xmlns="http://www.w3.org/2000/svg">
<path d="M20 0H8C3.58172 0 0 3.58172 0 8V20C0 24.4183 3.58172 28 8 28H20C24.4183 28 28 24.4183 28 20V8C28 3.58172 24.4183 0 20 0Z" fill="#0289F7" fill-opacity="0.1"/>
<path d="M19.25 15.25H16.5302C15.2052 16.863 12.695 16.8722 11.3622 15.25H8.75V18.75C8.75 18.75 8.94588 18.75 9.1875 18.75H19.25C19.25 18.75 19.25 18.5541 19.25 18.3125V15.25ZM8.75 13.5H12.2979L12.5841 13.9589C13.2216 14.9788 14.7126 14.962 15.327 13.9281L15.5817 13.5H19.25V11.75H8.75V13.5ZM19.25 8.6875C19.25 8.44588 19.25 8.25 19.25 8.25H8.75C8.75 8.25 8.75 8.44588 8.75 8.6875V10H19.25V8.6875ZM21 18.3125C21 19.5206 20.0206 20.5 18.8125 20.5H9.1875C7.97938 20.5 7 19.5206 7 18.3125V8.6875C7 7.47938 7.97938 6.5 9.1875 6.5H18.8125C20.0206 6.5 21 7.47938 21 8.6875V18.3125Z" fill="#0981E3"/>
</svg>
