<svg width="54" height="54" viewBox="0 0 54 54" fill="none" xmlns="http://www.w3.org/2000/svg">
<path d="M38.5714 0H15.4286C6.90761 0 0 6.90761 0 15.4286V38.5714C0 47.0924 6.90761 54 15.4286 54H38.5714C47.0924 54 54 47.0924 54 38.5714V15.4286C54 6.90761 47.0924 0 38.5714 0Z" fill="#0289F7" fill-opacity="0.1"/>
<path d="M40.4999 21.2145C41.565 21.2145 42.4284 22.0779 42.4284 23.1431V38.5716C42.4284 39.6368 41.565 40.5002 40.4999 40.5002H13.4999C12.4347 40.5002 11.5713 39.6368 11.5713 38.5716V23.1431C11.5713 22.0779 12.4347 21.2145 13.4999 21.2145H40.4999ZM15.4284 36.6431H38.5713V25.0716H15.4284V36.6431ZM26.9999 27.0002C29.1301 27.0002 30.857 28.7271 30.857 30.8574C30.857 32.9876 29.1301 34.7145 26.9999 34.7145C24.8696 34.7145 23.1427 32.9876 23.1427 30.8574C23.1427 28.7271 24.8696 27.0002 26.9999 27.0002ZM38.5713 19.2859H15.4284V15.4288H38.5713V19.2859ZM34.7141 13.5002H19.2856V9.64307H34.7141V13.5002Z" fill="#0981E3"/>
</svg>
